<mxfile host="app.diagrams.net" modified="2023-12-14T03:28:11.628Z" agent="Mozilla/5.0 (Windows NT 10.0; Win64; x64) AppleWebKit/537.36 (KHTML, like Gecko) Chrome/120.0.0.0 Safari/537.36" etag="2WkdMxZa3uWp1_GChSIX" version="22.1.8" type="github">
  <diagram id="C5RBs43oDa-KdzZeNtuy" name="Page-1">
    <mxGraphModel dx="1051" dy="794" grid="1" gridSize="10" guides="1" tooltips="1" connect="1" arrows="1" fold="1" page="1" pageScale="1" pageWidth="827" pageHeight="1169" math="0" shadow="0">
      <root>
        <mxCell id="WIyWlLk6GJQsqaUBKTNV-0" />
        <mxCell id="WIyWlLk6GJQsqaUBKTNV-1" parent="WIyWlLk6GJQsqaUBKTNV-0" />
        <mxCell id="dCFuUVV7j5fgrfGZvU6d-0" value="数据层" style="swimlane;horizontal=0;whiteSpace=wrap;html=1;fontSize=16;" vertex="1" parent="WIyWlLk6GJQsqaUBKTNV-1">
          <mxGeometry x="150" y="530" width="1050" height="200" as="geometry" />
        </mxCell>
        <mxCell id="dCFuUVV7j5fgrfGZvU6d-3" value="" style="outlineConnect=0;dashed=0;verticalLabelPosition=bottom;verticalAlign=top;align=center;html=1;shape=mxgraph.aws3.rds_db_instance_read_replica;fillColor=#2E73B8;gradientColor=none;fontSize=16;" vertex="1" parent="dCFuUVV7j5fgrfGZvU6d-0">
          <mxGeometry x="250" y="80" width="49.5" height="70" as="geometry" />
        </mxCell>
        <mxCell id="dCFuUVV7j5fgrfGZvU6d-4" value="" style="verticalLabelPosition=bottom;html=1;verticalAlign=top;align=center;strokeColor=none;fillColor=#00BEF2;shape=mxgraph.azure.mysql_database;fontSize=16;" vertex="1" parent="dCFuUVV7j5fgrfGZvU6d-0">
          <mxGeometry x="120" y="77" width="100" height="73" as="geometry" />
        </mxCell>
        <mxCell id="dCFuUVV7j5fgrfGZvU6d-6" value="VTE-Resis" style="text;html=1;align=center;verticalAlign=middle;resizable=0;points=[];autosize=1;strokeColor=none;fillColor=none;fontSize=16;" vertex="1" parent="dCFuUVV7j5fgrfGZvU6d-0">
          <mxGeometry x="224.75" y="160" width="100" height="30" as="geometry" />
        </mxCell>
        <mxCell id="dCFuUVV7j5fgrfGZvU6d-7" value="" style="verticalLabelPosition=bottom;html=1;verticalAlign=top;align=center;strokeColor=none;fillColor=#00BEF2;shape=mxgraph.azure.mysql_database;fontSize=16;" vertex="1" parent="dCFuUVV7j5fgrfGZvU6d-0">
          <mxGeometry x="840" y="80" width="100" height="73" as="geometry" />
        </mxCell>
        <mxCell id="dCFuUVV7j5fgrfGZvU6d-8" value="" style="verticalLabelPosition=bottom;html=1;verticalAlign=top;align=center;strokeColor=none;fillColor=#00BEF2;shape=mxgraph.azure.mysql_database;fontSize=16;" vertex="1" parent="dCFuUVV7j5fgrfGZvU6d-0">
          <mxGeometry x="540" y="78.5" width="100" height="73" as="geometry" />
        </mxCell>
        <mxCell id="dCFuUVV7j5fgrfGZvU6d-10" value="His-Mysql" style="text;html=1;align=center;verticalAlign=middle;resizable=0;points=[];autosize=1;strokeColor=none;fillColor=none;fontSize=16;" vertex="1" parent="dCFuUVV7j5fgrfGZvU6d-0">
          <mxGeometry x="545" y="160" width="90" height="30" as="geometry" />
        </mxCell>
        <mxCell id="dCFuUVV7j5fgrfGZvU6d-11" value="His-Mysql" style="text;html=1;align=center;verticalAlign=middle;resizable=0;points=[];autosize=1;strokeColor=none;fillColor=none;fontSize=16;" vertex="1" parent="dCFuUVV7j5fgrfGZvU6d-0">
          <mxGeometry x="845" y="160" width="90" height="30" as="geometry" />
        </mxCell>
        <mxCell id="dCFuUVV7j5fgrfGZvU6d-5" value="VTE-Mysql" style="text;html=1;align=center;verticalAlign=middle;resizable=0;points=[];autosize=1;strokeColor=none;fillColor=none;fontSize=16;" vertex="1" parent="WIyWlLk6GJQsqaUBKTNV-1">
          <mxGeometry x="260" y="688" width="100" height="30" as="geometry" />
        </mxCell>
        <mxCell id="dCFuUVV7j5fgrfGZvU6d-12" value="中间件" style="swimlane;horizontal=0;whiteSpace=wrap;html=1;fontSize=16;" vertex="1" parent="WIyWlLk6GJQsqaUBKTNV-1">
          <mxGeometry x="240" y="290" width="240" height="200" as="geometry" />
        </mxCell>
        <mxCell id="dCFuUVV7j5fgrfGZvU6d-21" value="" style="sketch=0;points=[[0,0,0],[0.25,0,0],[0.5,0,0],[0.75,0,0],[1,0,0],[0,1,0],[0.25,1,0],[0.5,1,0],[0.75,1,0],[1,1,0],[0,0.25,0],[0,0.5,0],[0,0.75,0],[1,0.25,0],[1,0.5,0],[1,0.75,0]];outlineConnect=0;fontColor=#232F3E;fillColor=#E7157B;strokeColor=#ffffff;dashed=0;verticalLabelPosition=bottom;verticalAlign=top;align=center;html=1;fontSize=12;fontStyle=0;aspect=fixed;shape=mxgraph.aws4.resourceIcon;resIcon=mxgraph.aws4.mq;" vertex="1" parent="dCFuUVV7j5fgrfGZvU6d-12">
          <mxGeometry x="96" y="50" width="78" height="78" as="geometry" />
        </mxCell>
        <mxCell id="dCFuUVV7j5fgrfGZvU6d-22" value="服务层" style="swimlane;horizontal=0;whiteSpace=wrap;html=1;fontSize=16;" vertex="1" parent="WIyWlLk6GJQsqaUBKTNV-1">
          <mxGeometry x="540" y="290" width="660" height="200" as="geometry" />
        </mxCell>
        <mxCell id="dCFuUVV7j5fgrfGZvU6d-23" value="" style="sketch=0;points=[[0,0,0],[0.25,0,0],[0.5,0,0],[0.75,0,0],[1,0,0],[0,1,0],[0.25,1,0],[0.5,1,0],[0.75,1,0],[1,1,0],[0,0.25,0],[0,0.5,0],[0,0.75,0],[1,0.25,0],[1,0.5,0],[1,0.75,0]];outlineConnect=0;fontColor=#232F3E;fillColor=#E7157B;strokeColor=#ffffff;dashed=0;verticalLabelPosition=bottom;verticalAlign=top;align=center;html=1;fontSize=12;fontStyle=0;aspect=fixed;shape=mxgraph.aws4.resourceIcon;resIcon=mxgraph.aws4.mq;" vertex="1" parent="dCFuUVV7j5fgrfGZvU6d-22">
          <mxGeometry x="96" y="50" width="78" height="78" as="geometry" />
        </mxCell>
      </root>
    </mxGraphModel>
  </diagram>
</mxfile>
